<svg width="22" height="22" viewBox="0 0 22 22" fill="none" xmlns="http://www.w3.org/2000/svg">
<path d="M10.9 5.60938C7.90002 5.60938 5.5094 8.04688 5.5094 11C5.5094 14 7.90002 16.3906 10.9 16.3906C13.8531 16.3906 16.2906 14 16.2906 11C16.2906 8.04688 13.8531 5.60938 10.9 5.60938ZM10.9 14.5156C8.97815 14.5156 7.3844 12.9688 7.3844 11C7.3844 9.07812 8.93127 7.53125 10.9 7.53125C12.8219 7.53125 14.3688 9.07812 14.3688 11C14.3688 12.9688 12.8219 14.5156 10.9 14.5156ZM17.7438 5.42188C17.7438 4.71875 17.1813 4.15625 16.4781 4.15625C15.775 4.15625 15.2125 4.71875 15.2125 5.42188C15.2125 6.125 15.775 6.6875 16.4781 6.6875C17.1813 6.6875 17.7438 6.125 17.7438 5.42188ZM21.3063 6.6875C21.2125 5 20.8375 3.5 19.6188 2.28125C18.4 1.0625 16.9 0.6875 15.2125 0.59375C13.4781 0.5 8.27502 0.5 6.54065 0.59375C4.85315 0.6875 3.40002 1.0625 2.1344 2.28125C0.915649 3.5 0.540649 5 0.446899 6.6875C0.353149 8.42188 0.353149 13.625 0.446899 15.3594C0.540649 17.0469 0.915649 18.5 2.1344 19.7656C3.40002 20.9844 4.85315 21.3594 6.54065 21.4531C8.27502 21.5469 13.4781 21.5469 15.2125 21.4531C16.9 21.3594 18.4 20.9844 19.6188 19.7656C20.8375 18.5 21.2125 17.0469 21.3063 15.3594C21.4 13.625 21.4 8.42188 21.3063 6.6875ZM19.0563 17.1875C18.7281 18.125 17.9781 18.8281 17.0875 19.2031C15.6813 19.7656 12.4 19.625 10.9 19.625C9.35315 19.625 6.0719 19.7656 4.71252 19.2031C3.77502 18.8281 3.0719 18.125 2.6969 17.1875C2.1344 15.8281 2.27502 12.5469 2.27502 11C2.27502 9.5 2.1344 6.21875 2.6969 4.8125C3.0719 3.92188 3.77502 3.21875 4.71252 2.84375C6.0719 2.28125 9.35315 2.42188 10.9 2.42188C12.4 2.42188 15.6813 2.28125 17.0875 2.84375C17.9781 3.17188 18.6813 3.92188 19.0563 4.8125C19.6188 6.21875 19.4781 9.5 19.4781 11C19.4781 12.5469 19.6188 15.8281 19.0563 17.1875Z" fill="#F5F5F5"/>
</svg>
