<svg width="25" height="20" viewBox="0 0 25 20" fill="none" xmlns="http://www.w3.org/2000/svg">
<path d="M22.0013 5.125C22.9388 4.42188 23.7826 3.57812 24.4388 2.59375C23.5951 2.96875 22.6107 3.25 21.6263 3.34375C22.6576 2.73438 23.4076 1.79688 23.7826 0.625C22.8451 1.1875 21.767 1.60938 20.6888 1.84375C19.7513 0.859375 18.4857 0.296875 17.0795 0.296875C14.3607 0.296875 12.1576 2.5 12.1576 5.21875C12.1576 5.59375 12.2045 5.96875 12.2982 6.34375C8.22009 6.10938 4.56384 4.14062 2.12634 1.1875C1.70447 1.89062 1.47009 2.73438 1.47009 3.67188C1.47009 5.35938 2.31384 6.85938 3.67322 7.75C2.87634 7.70312 2.07947 7.51562 1.42322 7.14062V7.1875C1.42322 9.57812 3.11072 11.5469 5.36072 12.0156C4.98572 12.1094 4.51697 12.2031 4.09509 12.2031C3.76697 12.2031 3.48572 12.1562 3.15759 12.1094C3.76697 14.0781 5.59509 15.4844 7.75134 15.5312C6.06384 16.8438 3.95447 17.6406 1.65759 17.6406C1.23572 17.6406 0.860718 17.5938 0.485718 17.5469C2.64197 18.9531 5.22009 19.75 8.03259 19.75C17.0795 19.75 22.0013 12.2969 22.0013 5.78125C22.0013 5.54688 22.0013 5.35938 22.0013 5.125Z" fill="#F5F5F5"/>
</svg>
