<svg width="266" height="60" viewBox="0 0 266 60" fill="none" xmlns="http://www.w3.org/2000/svg">
<g filter="url(#filter0_d)">
<path d="M4 0H29.9443L4 26V0Z" fill="#F17228" fill-opacity="0.95"/>
<path d="M16.9722 52C24.1365 52 29.9443 46.1797 29.9443 39C29.9443 31.8203 24.1365 26 16.9722 26C9.80784 26 4 31.8203 4 39C4 46.1797 9.80784 52 16.9722 52Z" fill="#F17228"/>
<path d="M72.4932 36.5845H89.8863V31.8381H78.2378V9.35547H72.4932V36.5845Z" fill="black"/>
<path d="M101.67 36.9836C107.853 36.9836 111.701 32.7423 111.701 26.4536C111.701 20.1249 107.853 15.897 101.67 15.897C95.4884 15.897 91.6409 20.1249 91.6409 26.4536C91.6409 32.7423 95.4884 36.9836 101.67 36.9836ZM101.697 32.5961C98.8446 32.5961 97.3855 29.9769 97.3855 26.4137C97.3855 22.8505 98.8446 20.218 101.697 20.218C104.496 20.218 105.956 22.8505 105.956 26.4137C105.956 29.9769 104.496 32.5961 101.697 32.5961Z" fill="black"/>
<path d="M123.435 44.6684C129.26 44.6684 133.399 42.0092 133.399 36.7841V16.1629H127.787V19.5931H127.575C126.818 17.9312 125.16 15.897 121.75 15.897C117.28 15.897 113.499 19.3804 113.499 26.3339C113.499 33.1279 117.173 36.2922 121.764 36.2922C125.014 36.2922 126.832 34.6569 127.575 32.9684H127.814V36.7044C127.814 39.5097 126.022 40.5999 123.568 40.5999C121.074 40.5999 119.813 39.5097 119.349 38.2732L114.122 38.9779C114.799 42.1954 117.943 44.6684 123.435 44.6684ZM123.555 32.0377C120.782 32.0377 119.27 29.8306 119.27 26.3073C119.27 22.8372 120.756 20.4041 123.555 20.4041C126.301 20.4041 127.84 22.7309 127.84 26.3073C127.84 29.9104 126.275 32.0377 123.555 32.0377Z" fill="black"/>
<path d="M145.983 36.9836C152.165 36.9836 156.013 32.7423 156.013 26.4536C156.013 20.1249 152.165 15.897 145.983 15.897C139.8 15.897 135.953 20.1249 135.953 26.4536C135.953 32.7423 139.8 36.9836 145.983 36.9836ZM146.009 32.5961C143.157 32.5961 141.698 29.9769 141.698 26.4137C141.698 22.8505 143.157 20.218 146.009 20.218C148.809 20.218 150.268 22.8505 150.268 26.4137C150.268 29.9769 148.809 32.5961 146.009 32.5961Z" fill="black"/>
<path d="M158.567 36.5845H164.219V16.1627H158.567V36.5845ZM161.406 13.5302C163.091 13.5302 164.471 12.2405 164.471 10.6583C164.471 9.08946 163.091 7.7998 161.406 7.7998C159.734 7.7998 158.355 9.08946 158.355 10.6583C158.355 12.2405 159.734 13.5302 161.406 13.5302Z" fill="black"/>
<path d="M167.625 44.2429H173.277V33.314H173.45C174.232 35.0159 175.944 36.9171 179.234 36.9171C183.877 36.9171 187.499 33.2342 187.499 26.4004C187.499 19.3804 183.718 15.897 179.247 15.897C175.838 15.897 174.206 17.9312 173.45 19.5931H173.198V16.1629H167.625V44.2429ZM173.158 26.3738C173.158 22.7309 174.697 20.4041 177.443 20.4041C180.242 20.4041 181.728 22.8372 181.728 26.3738C181.728 29.937 180.216 32.4099 177.443 32.4099C174.723 32.4099 173.158 30.0167 173.158 26.3738Z" fill="black"/>
<path d="M207.102 21.9863C206.597 18.2237 203.573 15.897 198.425 15.897C193.211 15.897 189.775 18.3167 189.788 22.2522C189.775 25.3102 191.698 27.2912 195.679 28.0889L199.208 28.7936C200.986 29.1526 201.795 29.804 201.821 30.8278C201.795 32.0377 200.481 32.9019 198.505 32.9019C196.488 32.9019 195.148 32.0377 194.803 30.3757L189.244 30.6682C189.775 34.5771 193.092 36.9836 198.491 36.9836C203.771 36.9836 207.553 34.2846 207.566 30.2561C207.553 27.3045 205.629 25.5362 201.675 24.7252L197.987 23.9806C196.09 23.5685 195.387 22.917 195.4 21.9331C195.387 20.7099 196.766 19.9122 198.518 19.9122C200.481 19.9122 201.649 20.9891 201.927 22.3054L207.102 21.9863Z" fill="black"/>
<path d="M223.072 27.8892C223.085 30.6281 221.214 32.0639 219.185 32.0639C217.049 32.0639 215.669 30.5616 215.655 28.1551V16.1626H210.004V29.1656C210.017 33.9386 212.803 36.8503 216.903 36.8503C219.967 36.8503 222.169 35.2682 223.085 32.875H223.298V36.5844H228.724V16.1626H223.072V27.8892Z" fill="black"/>
<path d="M232.123 36.5847H237.776V24.3263C237.776 22.0661 239.208 20.5637 241.092 20.5637C242.949 20.5637 244.197 21.8401 244.197 23.8477V36.5847H249.676V24.1136C249.676 21.9996 250.883 20.5637 252.939 20.5637C254.744 20.5637 256.097 21.6938 256.097 23.9673V36.5847H261.736V22.8505C261.736 18.4231 259.109 15.897 255.314 15.897C252.329 15.897 250.007 17.426 249.172 19.766H248.959C248.309 17.3994 246.226 15.897 243.427 15.897C240.681 15.897 238.598 17.3595 237.749 19.766H237.51V16.1629H232.123V36.5847Z" fill="black"/>
<path d="M55.8887 0H29.9443V26H55.8887V0Z" fill="#F17228"/>
<path d="M29.9443 26H55.8887L29.9443 52V26Z" fill="#F17228"/>
<path d="M72.4932 36.5845H89.8863V31.8381H78.2378V9.35547H72.4932V36.5845Z" fill="black"/>
<path d="M101.67 36.9836C107.853 36.9836 111.701 32.7423 111.701 26.4536C111.701 20.1249 107.853 15.897 101.67 15.897C95.4884 15.897 91.6409 20.1249 91.6409 26.4536C91.6409 32.7423 95.4884 36.9836 101.67 36.9836ZM101.697 32.5961C98.8446 32.5961 97.3855 29.9769 97.3855 26.4137C97.3855 22.8505 98.8446 20.218 101.697 20.218C104.496 20.218 105.956 22.8505 105.956 26.4137C105.956 29.9769 104.496 32.5961 101.697 32.5961Z" fill="black"/>
<path d="M123.435 44.6684C129.26 44.6684 133.399 42.0092 133.399 36.7841V16.1629H127.787V19.5931H127.575C126.818 17.9312 125.16 15.897 121.75 15.897C117.28 15.897 113.499 19.3804 113.499 26.3339C113.499 33.1279 117.173 36.2922 121.764 36.2922C125.014 36.2922 126.832 34.6569 127.575 32.9684H127.814V36.7044C127.814 39.5097 126.022 40.5999 123.568 40.5999C121.074 40.5999 119.813 39.5097 119.349 38.2732L114.122 38.9779C114.799 42.1954 117.943 44.6684 123.435 44.6684ZM123.555 32.0377C120.782 32.0377 119.27 29.8306 119.27 26.3073C119.27 22.8372 120.756 20.4041 123.555 20.4041C126.301 20.4041 127.84 22.7309 127.84 26.3073C127.84 29.9104 126.275 32.0377 123.555 32.0377Z" fill="black"/>
<path d="M145.983 36.9836C152.165 36.9836 156.013 32.7423 156.013 26.4536C156.013 20.1249 152.165 15.897 145.983 15.897C139.8 15.897 135.953 20.1249 135.953 26.4536C135.953 32.7423 139.8 36.9836 145.983 36.9836ZM146.009 32.5961C143.157 32.5961 141.698 29.9769 141.698 26.4137C141.698 22.8505 143.157 20.218 146.009 20.218C148.809 20.218 150.268 22.8505 150.268 26.4137C150.268 29.9769 148.809 32.5961 146.009 32.5961Z" fill="black"/>
<path d="M158.567 36.5845H164.219V16.1627H158.567V36.5845ZM161.406 13.5302C163.091 13.5302 164.471 12.2405 164.471 10.6583C164.471 9.08946 163.091 7.7998 161.406 7.7998C159.734 7.7998 158.355 9.08946 158.355 10.6583C158.355 12.2405 159.734 13.5302 161.406 13.5302Z" fill="black"/>
<path d="M167.625 44.2429H173.277V33.314H173.45C174.232 35.0159 175.944 36.9171 179.234 36.9171C183.877 36.9171 187.499 33.2342 187.499 26.4004C187.499 19.3804 183.718 15.897 179.247 15.897C175.838 15.897 174.206 17.9312 173.45 19.5931H173.198V16.1629H167.625V44.2429ZM173.158 26.3738C173.158 22.7309 174.697 20.4041 177.443 20.4041C180.242 20.4041 181.728 22.8372 181.728 26.3738C181.728 29.937 180.216 32.4099 177.443 32.4099C174.723 32.4099 173.158 30.0167 173.158 26.3738Z" fill="black"/>
<path d="M223.072 27.8892C223.085 30.6281 221.214 32.0639 219.185 32.0639C217.049 32.0639 215.669 30.5616 215.655 28.1551V16.1626H210.004V29.1656C210.017 33.9386 212.803 36.8503 216.903 36.8503C219.967 36.8503 222.169 35.2682 223.085 32.875H223.298V36.5844H228.724V16.1626H223.072V27.8892Z" fill="black"/>
<path d="M232.123 36.5847H237.776V24.3263C237.776 22.0661 239.208 20.5637 241.092 20.5637C242.949 20.5637 244.197 21.8401 244.197 23.8477V36.5847H249.676V24.1136C249.676 21.9996 250.883 20.5637 252.939 20.5637C254.744 20.5637 256.097 21.6938 256.097 23.9673V36.5847H261.736V22.8505C261.736 18.4231 259.109 15.897 255.314 15.897C252.329 15.897 250.007 17.426 249.172 19.766H248.959C248.309 17.3994 246.226 15.897 243.427 15.897C240.681 15.897 238.598 17.3595 237.749 19.766H237.51V16.1629H232.123V36.5847Z" fill="black"/>
</g>
<defs>
<filter id="filter0_d" x="0" y="0" width="269" height="60" filterUnits="userSpaceOnUse" color-interpolation-filters="sRGB">
<feFlood flood-opacity="0" result="BackgroundImageFix"/>
<feColorMatrix in="SourceAlpha" type="matrix" values="0 0 0 0 0 0 0 0 0 0 0 0 0 0 0 0 0 0 127 0" result="hardAlpha"/>
<feOffset dy="4"/>
<feGaussianBlur stdDeviation="2"/>
<feComposite in2="hardAlpha" operator="out"/>
<feColorMatrix type="matrix" values="0 0 0 0 0 0 0 0 0 0 0 0 0 0 0 0 0 0 0.25 0"/>
<feBlend mode="normal" in2="BackgroundImageFix" result="effect1_dropShadow"/>
<feBlend mode="normal" in="SourceGraphic" in2="effect1_dropShadow" result="shape"/>
</filter>
</defs>
</svg>
